<svg transform='rotate(-90), translate(0 500)' width="100%" height="100%" id="svg" viewBox="0 0 1440 700" xmlns="http://www.w3.org/2000/svg" class="transition duration-300 ease-in-out delay-150"><defs><linearGradient id="gradient" x1="0%" y1="50%" x2="100%" y2="50%"><stop offset="5%" stop-color="#002bdc66"></stop><stop offset="95%" stop-color="#32ded466"></stop></linearGradient></defs><path d="M 0,700 C 0,700 0,175 0,175 C 36.157306696263404,209.00226908373412 72.31461339252681,243.00453816746827 132,239 C 191.6853866074732,234.99546183253173 274.8988531261561,192.98411641386116 334,192 C 393.1011468738439,191.01588358613884 428.0899741028487,231.05899617708715 468,240 C 507.9100258971513,248.94100382291285 552.7412504624491,226.77989887779015 610,211 C 667.2587495375509,195.22010112220985 736.9450240473548,185.82140831175235 795,176 C 853.0549759526452,166.17859168824765 899.4786533481318,155.9344678752004 950,164 C 1000.5213466518682,172.0655321247996 1055.1403625601183,198.44072018744603 1107,194 C 1158.8596374398817,189.55927981255397 1207.9598964113945,154.30265137501542 1263,146 C 1318.0401035886055,137.69734862498458 1379.0200517943026,156.34867431249228 1440,175 C 1440,175 1440,700 1440,700 Z" stroke="none" stroke-width="0" fill="url(#gradient)" class="transition-all duration-300 ease-in-out delay-150 path-0"></path><defs><linearGradient id="gradient" x1="0%" y1="50%" x2="100%" y2="50%"><stop offset="5%" stop-color="#002bdc88"></stop><stop offset="95%" stop-color="#32ded488"></stop></linearGradient></defs><path d="M 0,700 C 0,700 0,350 0,350 C 44.50812677272167,341.45167098285856 89.01625354544333,332.9033419657171 137,325 C 184.98374645455667,317.0966580342829 236.44311259094832,309.83830311999014 302,319 C 367.5568874090517,328.16169688000986 447.2112960907634,353.74344555432236 507,373 C 566.7887039092366,392.25655444567764 606.7117030459982,405.18791466272046 654,407 C 701.2882969540018,408.81208533727954 755.9418917252436,399.5048957947959 808,379 C 860.0581082747564,358.4951042052041 909.5207300530276,326.7925021580959 969,315 C 1028.4792699469724,303.2074978419041 1097.9751880626463,311.3250955728204 1142,319 C 1186.0248119373537,326.6749044271796 1204.5785176963866,333.90711555062273 1250,339 C 1295.4214823036134,344.09288444937727 1367.7107411518068,347.04644222468863 1440,350 C 1440,350 1440,700 1440,700 Z" stroke="none" stroke-width="0" fill="url(#gradient)" class="transition-all duration-300 ease-in-out delay-150 path-1"></path><defs><linearGradient id="gradient" x1="0%" y1="50%" x2="100%" y2="50%"><stop offset="5%" stop-color="#002bdcff"></stop><stop offset="95%" stop-color="#32ded4ff"></stop></linearGradient></defs><path d="M 0,700 C 0,700 0,525 0,525 C 42.74894561598224,517.7201874460476 85.49789123196447,510.44037489209524 138,504 C 190.50210876803553,497.55962510790476 252.75738068812433,491.9586878776669 307,496 C 361.24261931187567,500.0413121223331 407.47258601553835,513.7248735972375 458,539 C 508.52741398446165,564.2751264027625 563.3522752497225,601.1418177333827 622,579 C 680.6477247502775,556.8581822666173 743.1183129855717,475.70785546923173 802,464 C 860.8816870144283,452.29214453076827 916.1744728079912,510.0267603896905 964,530 C 1011.8255271920088,549.9732396103095 1052.183795782464,532.1851029720063 1111,513 C 1169.816204217536,493.81489702799365 1247.090344062153,473.23282772228384 1305,475 C 1362.909655937847,476.76717227771616 1401.4548279689234,500.88358613885805 1440,525 C 1440,525 1440,700 1440,700 Z" stroke="none" stroke-width="0" fill="url(#gradient)" class="transition-all duration-300 ease-in-out delay-150 path-2"></path></svg>