<svg width="100%" height="100%" id="svg" viewBox="0 0 1440 400" xmlns="http://www.w3.org/2000/svg" class="transition duration-300 ease-in-out delay-150"><defs><linearGradient id="gradient" x1="0%" y1="50%" x2="100%" y2="50%"><stop offset="5%" stop-color="#002bdc66"></stop><stop offset="95%" stop-color="#32ded466"></stop></linearGradient></defs><path d="M 0,400 C 0,400 0,100 0,100 C 78.7076923076923,106.23076923076923 157.4153846153846,112.46153846153847 245,106 C 332.5846153846154,99.53846153846153 429.04615384615386,80.38461538461539 505,74 C 580.9538461538461,67.61538461538461 636.4000000000001,73.99999999999999 704,83 C 771.5999999999999,92.00000000000001 851.3538461538461,103.61538461538463 936,111 C 1020.6461538461539,118.38461538461537 1110.1846153846154,121.53846153846152 1195,119 C 1279.8153846153846,116.46153846153848 1359.9076923076923,108.23076923076924 1440,100 C 1440,100 1440,400 1440,400 Z" stroke="none" stroke-width="0" fill="url(#gradient)" class="transition-all duration-300 ease-in-out delay-150 path-0"></path><defs><linearGradient id="gradient" x1="0%" y1="50%" x2="100%" y2="50%"><stop offset="5%" stop-color="#002bdc88"></stop><stop offset="95%" stop-color="#32ded488"></stop></linearGradient></defs><path d="M 0,400 C 0,400 0,200 0,200 C 71.41025641025641,221.43589743589743 142.82051282051282,242.87179487179486 220,232 C 297.1794871794872,221.12820512820514 380.1282051282051,177.94871794871796 465,175 C 549.8717948717949,172.05128205128204 636.6666666666667,209.33333333333331 719,223 C 801.3333333333333,236.66666666666669 879.2051282051282,226.7179487179487 951,209 C 1022.7948717948718,191.2820512820513 1088.5128205128206,165.79487179487182 1169,163 C 1249.4871794871794,160.20512820512818 1344.7435897435898,180.1025641025641 1440,200 C 1440,200 1440,400 1440,400 Z" stroke="none" stroke-width="0" fill="url(#gradient)" class="transition-all duration-300 ease-in-out delay-150 path-1"></path><defs><linearGradient id="gradient" x1="0%" y1="50%" x2="100%" y2="50%"><stop offset="5%" stop-color="#002bdcff"></stop><stop offset="95%" stop-color="#32ded4ff"></stop></linearGradient></defs><path d="M 0,400 C 0,400 0,300 0,300 C 78.90512820512822,287.86153846153843 157.81025641025644,275.7230769230769 243,284 C 328.18974358974356,292.2769230769231 419.66410256410256,320.9692307692307 497,322 C 574.3358974358974,323.0307692307693 637.5333333333334,296.4 710,298 C 782.4666666666666,299.6 864.2025641025641,329.4307692307692 958,327 C 1051.797435897436,324.5692307692308 1157.6564102564103,289.87692307692305 1240,280 C 1322.3435897435897,270.12307692307695 1381.1717948717949,285.0615384615385 1440,300 C 1440,300 1440,400 1440,400 Z" stroke="none" stroke-width="0" fill="url(#gradient)" class="transition-all duration-300 ease-in-out delay-150 path-2"></path></svg>